HIERARCHY
ROOT joint_0
{
	OFFSET 0.000000 0.000000 0.000000
	CHANNELS 6 Xposition Yposition Zposition Zrotation Yrotation Xrotation 
	JOINT joint_1
	{
		OFFSET 14.113007 -2.961990 123.953979
		CHANNELS 3 Zrotation Yrotation Xrotation
		JOINT joint_2
		{
			OFFSET 0.764000 -2.434006 113.871948
			CHANNELS 3 Zrotation Yrotation Xrotation
			JOINT joint_3
			{
				OFFSET 0.186996 -2.169998 113.753052
				CHANNELS 3 Zrotation Yrotation Xrotation
				JOINT joint_4
				{
					OFFSET 16.096001 -2.720001 160.853027
					CHANNELS 3 Zrotation Yrotation Xrotation
					JOINT joint_5
					{
						OFFSET 34.392006 -0.188995 92.567017
						CHANNELS 3 Zrotation Yrotation Xrotation
						End Site
						{
							OFFSET 0.000000 0.000000 0.000000
						}
					}
				}
				JOINT joint_6
				{
					OFFSET 9.183998 -36.684006 89.597046
					CHANNELS 3 Zrotation Yrotation Xrotation
					JOINT joint_7
					{
						OFFSET 0.486000 -164.365997 -28.984009
						CHANNELS 3 Zrotation Yrotation Xrotation
						JOINT joint_8
						{
							OFFSET 38.899002 -34.967010 -291.651978
							CHANNELS 3 Zrotation Yrotation Xrotation
							JOINT joint_9
							{
								OFFSET 41.714005 -45.890991 -258.857056
								CHANNELS 3 Zrotation Yrotation Xrotation
								End Site
								{
									OFFSET 0.000000 0.000000 0.000000
								}
							}
						}
					}
				}
				JOINT joint_10
				{
					OFFSET 8.867004 33.650002 90.817993
					CHANNELS 3 Zrotation Yrotation Xrotation
					JOINT joint_11
					{
						OFFSET 0.018997 164.299999 -29.368042
						CHANNELS 3 Zrotation Yrotation Xrotation
						JOINT joint_12
						{
							OFFSET 29.440994 30.887997 -293.216919
							CHANNELS 3 Zrotation Yrotation Xrotation
							JOINT joint_13
							{
								OFFSET 46.174011 54.490005 -256.422058
								CHANNELS 3 Zrotation Yrotation Xrotation
								End Site
								{
									OFFSET 0.000000 0.000000 0.000000
								}
							}
						}
					}
				}
			}
		}
	}
	JOINT joint_14
	{
		OFFSET -2.264000 -89.466995 -116.150024
		CHANNELS 3 Zrotation Yrotation Xrotation
		JOINT joint_15
		{
			OFFSET -16.400993 -17.452988 -493.781982
			CHANNELS 3 Zrotation Yrotation Xrotation
			JOINT joint_16
			{
				OFFSET -50.497004 -13.404022 -424.754013
				CHANNELS 3 Zrotation Yrotation Xrotation
				JOINT joint_17
				{
					OFFSET 198.546007 -19.341003 -89.309000
					CHANNELS 3 Zrotation Yrotation Xrotation
					End Site
					{
						OFFSET 0.000000 0.000000 0.000000
					}
				}
			}
		}
	}
	JOINT joint_18
	{
		OFFSET -0.867996 96.016006 -110.817993
		CHANNELS 3 Zrotation Yrotation Xrotation
		JOINT joint_19
		{
			OFFSET -10.130997 24.658998 -493.645020
			CHANNELS 3 Zrotation Yrotation Xrotation
			JOINT joint_20
			{
				OFFSET -48.871004 19.434999 -424.714005
				CHANNELS 3 Zrotation Yrotation Xrotation
				JOINT joint_21
				{
					OFFSET 195.579996 24.926001 -94.327003
					CHANNELS 3 Zrotation Yrotation Xrotation
					End Site
					{
						OFFSET 0.000000 0.000000 0.000000
					}
				}
			}
		}
	}
}
MOTION
Frames: 7
Frame Time: 0.016667
-2583.096191 893.063049 1133.925049 8.150268 -2.442170 1.814708 -0.866660 1.104903 4.558904 -0.743319 -0.107698 -0.957895 -0.740856 0.189270 0.712393 -0.877133 -0.667993 2.222143 0.000000 0.000000 0.000000 0.410750 -5.168823 -0.777994 -3.410457 -1.186565 -11.297606 -169.185498 -81.337185 -156.192857 0.000000 0.000000 0.000000 2.081982 -4.434402 4.277972 0.554865 -1.164986 17.920970 -9.285552 -85.020049 -14.608191 0.000000 0.000000 0.000000 5.309898 -15.941867 -7.883783 6.660759 3.980180 -0.427688 6.461386 4.576769 3.144147 0.000000 0.000000 0.000000 -4.577029 6.578352 -1.372841 -4.417621 15.725495 -3.003387 -5.752643 -8.074938 -1.539604 0.000000 0.000000 0.000000 
-2573.576416 888.625061 1129.064941 9.049079 -3.024698 1.874897 -0.983669 1.386653 4.673761 -0.891651 -0.193862 -0.987630 -0.895328 0.283551 0.739980 -0.878183 -0.455342 2.225056 0.000000 0.000000 0.000000 0.525442 -5.903481 -0.603158 -3.477364 -1.690451 -11.762388 -169.290367 -81.297139 -156.548112 0.000000 0.000000 0.000000 1.976063 -5.400738 3.830824 0.581501 -2.063859 18.366213 -9.426320 -83.952856 -14.592281 0.000000 0.000000 0.000000 4.890946 -15.501428 -7.756120 6.156982 4.216851 -0.414808 5.985469 4.849408 2.970092 0.000000 0.000000 0.000000 -4.809222 6.787669 -1.049322 -4.529945 17.635325 -3.253563 -6.023298 -9.240894 -1.492333 0.000000 0.000000 0.000000 
-2564.032959 884.011719 1124.063965 9.804514 -3.605360 1.807901 -1.065429 1.591912 5.003694 -0.975790 -0.255396 -1.091184 -0.980863 0.390606 0.791572 -0.859454 -0.249563 2.179470 0.000000 0.000000 0.000000 0.738408 -6.763701 -0.389526 -3.922137 -2.286845 -12.493249 -169.619082 -81.160067 -156.001566 0.000000 0.000000 0.000000 1.897709 -6.509095 3.161314 0.665501 -3.051236 19.025808 -9.571080 -82.714651 -15.105910 0.000000 0.000000 0.000000 4.050617 -15.536513 -7.342606 5.086843 6.699607 -0.102888 5.262653 3.925506 2.584243 0.000000 0.000000 0.000000 -4.995180 6.928611 -0.611527 -4.560179 19.721273 -3.485555 -6.206526 -10.319206 -1.413606 0.000000 0.000000 0.000000 
-2554.977783 879.499817 1119.975952 10.386394 -4.113968 1.750634 -1.094471 1.844139 5.264869 -1.009681 -0.308499 -1.143327 -1.014838 0.475150 0.836075 -0.851448 -0.152214 2.159568 0.000000 0.000000 0.000000 0.867015 -7.558332 -0.206816 -4.302565 -2.842589 -13.141453 -169.908159 -81.411777 -155.587454 0.000000 0.000000 0.000000 1.763648 -7.470921 2.609550 0.688139 -3.907834 19.382033 -9.751321 -81.489449 -15.364796 0.000000 0.000000 0.000000 3.336735 -15.763098 -7.060416 4.169846 9.402795 0.345664 4.776178 3.003673 2.293433 0.000000 0.000000 0.000000 -5.233313 6.743509 -0.168775 -4.605775 22.159582 -3.809177 -6.412609 -10.988406 -1.388955 0.000000 0.000000 0.000000 
-2546.586426 875.098938 1117.182007 10.664965 -4.479295 1.686086 -1.025595 2.134632 5.479912 -0.943137 -0.311180 -1.140469 -0.945431 0.508941 0.851342 -0.866223 -0.253450 2.187987 0.000000 0.000000 0.000000 0.799946 -8.205331 -0.088023 -4.372953 -3.285055 -13.567166 -170.002158 -82.302781 -155.866456 0.000000 0.000000 0.000000 1.481092 -8.155954 2.339472 0.609941 -4.547637 19.220524 -9.970910 -80.431047 -14.975939 0.000000 0.000000 0.000000 2.978929 -16.340218 -7.030232 3.679081 12.023276 1.134387 4.793341 2.329907 2.231422 0.000000 0.000000 0.000000 -5.505681 6.053485 0.325737 -4.636180 25.147813 -4.304680 -6.641059 -11.088913 -1.433140 0.000000 0.000000 0.000000 
-2538.681885 870.799622 1115.302002 10.794671 -4.769930 1.609975 -0.913774 2.465943 5.697308 -0.832355 -0.301519 -1.124892 -0.831341 0.520707 0.856866 -0.891760 -0.459932 2.236481 0.000000 0.000000 0.000000 0.657289 -8.761150 -0.035925 -4.337773 -3.663627 -13.871648 -170.024676 -83.546336 -156.358076 0.000000 0.000000 0.000000 1.119909 -8.670947 2.226332 0.488807 -5.050910 18.764856 -10.204412 -79.446803 -14.308612 0.000000 0.000000 0.000000 2.744792 -17.103662 -7.090091 3.320829 14.858945 2.085160 5.049368 1.735282 2.272715 0.000000 0.000000 0.000000 -5.836964 5.054871 0.869238 -4.692095 28.423164 -4.924173 -6.937233 -10.628116 -1.565072 0.000000 0.000000 0.000000 
-2531.245117 866.851929 1114.246948 10.999423 -5.045932 1.593850 -0.865445 2.841563 5.851299 -0.784941 -0.334981 -1.119519 -0.781567 0.553097 0.873829 -0.924018 -0.596496 2.305722 0.000000 0.000000 0.000000 0.621133 -9.202034 -0.106213 -4.349584 -3.986687 -14.046857 -170.075319 -84.801009 -156.686954 0.000000 0.000000 0.000000 0.819949 -9.059457 2.219333 0.365001 -5.439257 18.151586 -10.426857 -78.383719 -13.697690 0.000000 0.000000 0.000000 2.580361 -17.466336 -7.107831 3.000638 16.920719 2.705327 5.193895 1.355928 2.288997 0.000000 0.000000 0.000000 -6.323545 3.989800 1.379826 -4.901599 31.493855 -5.653288 -7.461270 -9.634700 -1.855901 0.000000 0.000000 0.000000 
